<svg width="60" height="60" viewBox="0 0 60 60" fill="none" xmlns="http://www.w3.org/2000/svg">
<g clip-path="url(#clip0)">
<path d="M42.5791 54.3407C38.3593 52.9767 35.5001 49.0476 35.5001 44.6129V40.8782H24.5V44.6129C24.5 49.0477 21.6408 52.9768 17.4209 54.3407H42.5791Z" fill="url(#paint0_linear)"/>
<path d="M35.5001 44.6129V40.8782H24.5V43.3307L35.51 54.3407H42.5792C38.3593 52.9768 35.5001 49.0477 35.5001 44.6129Z" fill="url(#paint1_linear)"/>
<path d="M56.1908 43.3308H3.80918C1.70541 43.3308 0 41.6253 0 39.5216V4.55822C0 2.45446 1.70541 0.749046 3.80918 0.749046H56.1908C58.2946 0.749046 60 2.45446 60 4.55822V39.5216C60 41.6253 58.2946 43.3308 56.1908 43.3308Z" fill="url(#paint2_linear)"/>
<path d="M54.1246 40.522H5.87553C4.20306 40.522 2.84729 39.1662 2.84729 37.4938V6.58599C2.84729 4.91352 4.20306 3.55775 5.87553 3.55775H54.1246C55.7971 3.55775 57.1528 4.91352 57.1528 6.58599V37.4938C57.1527 39.1662 55.7969 40.522 54.1246 40.522Z" fill="url(#paint3_linear)"/>
<path d="M52.6372 38.6966H7.36283C5.82672 38.6966 4.58142 37.4513 4.58142 35.9152V8.16457C4.58142 6.62846 5.82672 5.38316 7.36283 5.38316H52.6371C54.1732 5.38316 55.4185 6.62846 55.4185 8.16457V35.915C55.4186 37.4513 54.1733 38.6966 52.6372 38.6966Z" fill="url(#paint4_linear)"/>
<path d="M21.6486 31.0087H9.3666C8.51342 31.0087 7.82178 30.3171 7.82178 29.4639V14.616C7.82178 13.7628 8.51342 13.0712 9.3666 13.0712H21.6486C22.5018 13.0712 23.1934 13.7628 23.1934 14.616V29.4638C23.1934 30.3169 22.5018 31.0087 21.6486 31.0087Z" fill="#FF637B"/>
<path d="M35.8141 17.5418H27.3908C26.7735 17.5418 26.2732 17.0414 26.2732 16.4241V14.1888C26.2732 13.5715 26.7735 13.0712 27.3908 13.0712H35.8141C36.4314 13.0712 36.9318 13.5715 36.9318 14.1888V16.4241C36.9318 17.0413 36.4313 17.5418 35.8141 17.5418Z" fill="#B5DBFF"/>
<path d="M51.0605 17.5418H40.5663C39.949 17.5418 39.4486 17.0414 39.4486 16.4241V14.1888C39.4486 13.5715 39.949 13.0712 40.5663 13.0712H51.0605C51.6778 13.0712 52.1781 13.5715 52.1781 14.1888V16.4241C52.1781 17.0413 51.6778 17.5418 51.0605 17.5418Z" fill="#FF637B"/>
<path d="M46.849 24.2752H51.0606C51.6779 24.2752 52.1783 23.7748 52.1783 23.1575V20.9222C52.1783 20.3049 51.6779 19.8046 51.0606 19.8046H46.849C46.2317 19.8046 45.7313 20.3049 45.7313 20.9222V23.1575C45.7313 23.7748 46.2318 24.2752 46.849 24.2752Z" fill="#FF637B"/>
<path d="M27.3899 24.2752H42.0958C42.7131 24.2752 43.2134 23.7748 43.2134 23.1575V20.9222C43.2134 20.3049 42.7131 19.8046 42.0958 19.8046H27.3899C26.7726 19.8046 26.2722 20.3049 26.2722 20.9222V23.1575C26.2722 23.7748 26.7727 24.2752 27.3899 24.2752Z" fill="#B5DBFF"/>
<path d="M35.8133 31.0087H27.39C26.7727 31.0087 26.2723 30.5083 26.2723 29.8911V27.6558C26.2723 27.0385 26.7727 26.5381 27.39 26.5381H35.8133C36.4306 26.5381 36.9309 27.0385 36.9309 27.6558V29.8911C36.9309 30.5082 36.4305 31.0087 35.8133 31.0087Z" fill="#B5DBFF"/>
<path d="M51.0606 31.0087H40.5664C39.9491 31.0087 39.4487 30.5083 39.4487 29.8911V27.6558C39.4487 27.0385 39.9491 26.5381 40.5664 26.5381H51.0606C51.6779 26.5381 52.1783 27.0385 52.1783 27.6558V29.8911C52.1783 30.5082 51.6779 31.0087 51.0606 31.0087Z" fill="#FF637B"/>
<path d="M30.0001 4.72139C30.6427 4.72139 31.1637 4.20041 31.1637 3.55775C31.1637 2.91508 30.6427 2.3941 30.0001 2.3941C29.3574 2.3941 28.8364 2.91508 28.8364 3.55775C28.8364 4.20041 29.3574 4.72139 30.0001 4.72139Z" fill="url(#paint5_linear)"/>
<path d="M30 4.2881C30.4034 4.2881 30.7304 3.96111 30.7304 3.55774C30.7304 3.15438 30.4034 2.82739 30 2.82739C29.5966 2.82739 29.2697 3.15438 29.2697 3.55774C29.2697 3.96111 29.5966 4.2881 30 4.2881Z" fill="url(#paint6_linear)"/>
<path d="M47.4103 59.2509H12.5898C11.8577 59.2509 11.2643 58.6575 11.2643 57.9254C11.2643 55.5754 13.1693 53.6703 15.5193 53.6703H44.4808C46.8308 53.6703 48.7358 55.5754 48.7358 57.9254C48.7358 58.6575 48.1424 59.2509 47.4103 59.2509Z" fill="url(#paint7_linear)"/>
<path d="M7.04569 42.208H6.18134C5.68558 42.208 5.28381 41.8061 5.28381 41.3105V40.4461C5.28381 39.9503 5.6857 39.5486 6.18134 39.5486H7.04569C7.54146 39.5486 7.94322 39.9505 7.94322 40.4461V41.3105C7.94322 41.8061 7.54146 42.208 7.04569 42.208Z" fill="url(#paint8_linear)"/>
<path d="M42.6038 17.0818C39.1232 13.4643 34.7505 11.544 30 11.544C23.9855 11.544 18.8108 14.7621 15.052 20.2654C14.3215 21.3349 14.3215 22.7447 15.052 23.8143C16.0166 25.2266 16.8551 26.5026 18.0194 27.6212L33.7291 43.3307H56.1909C58.2947 43.3307 60.0001 41.6253 60.0001 39.5215V34.4779L42.6038 17.0818Z" fill="url(#paint9_linear)"/>
<path d="M29.9999 11.3086C23.9855 11.3086 18.5752 14.7621 14.8165 20.2654C14.0861 21.3349 14.0861 22.7448 14.8165 23.8143C18.5754 29.3176 23.9855 32.7711 29.9999 32.7711C36.0144 32.7711 41.4246 29.3176 45.1834 23.8143C45.9138 22.7448 45.9138 21.3349 45.1834 20.2654C41.4246 14.762 36.0144 11.3086 29.9999 11.3086Z" fill="url(#paint10_linear)"/>
<path d="M30 31.4886C35.2183 31.4886 39.4487 27.2582 39.4487 22.0399C39.4487 16.8215 35.2183 12.5912 30 12.5912C24.7816 12.5912 20.5513 16.8215 20.5513 22.0399C20.5513 27.2582 24.7816 31.4886 30 31.4886Z" fill="url(#paint11_linear)"/>
<path d="M29.9999 29.7458C34.2558 29.7458 37.7058 26.2957 37.7058 22.0399C37.7058 17.784 34.2558 14.334 29.9999 14.334C25.7441 14.334 22.2941 17.784 22.2941 22.0399C22.2941 26.2957 25.7441 29.7458 29.9999 29.7458Z" fill="url(#paint12_linear)"/>
</g>
<defs>
<linearGradient id="paint0_linear" x1="26.8017" y1="48.0345" x2="33.8442" y2="56.8043" gradientUnits="userSpaceOnUse">
<stop stop-color="#0B799D"/>
<stop offset="1" stop-color="#07485E"/>
</linearGradient>
<linearGradient id="paint1_linear" x1="33.8714" y1="50.2326" x2="31.0145" y2="38.2072" gradientUnits="userSpaceOnUse">
<stop stop-color="#07485E" stop-opacity="0"/>
<stop offset="1" stop-color="#03232E"/>
</linearGradient>
<linearGradient id="paint2_linear" x1="17.6908" y1="9.73069" x2="57.9372" y2="49.977" gradientUnits="userSpaceOnUse">
<stop stop-color="#0B799D"/>
<stop offset="1" stop-color="#07485E"/>
</linearGradient>
<linearGradient id="paint3_linear" x1="50.49" y1="42.53" x2="2.91894" y2="-5.04119" gradientUnits="userSpaceOnUse">
<stop stop-color="#0B799D"/>
<stop offset="1" stop-color="#07485E"/>
</linearGradient>
<linearGradient id="paint4_linear" x1="29.6453" y1="2.95933" x2="42.8232" y2="50.3203" gradientUnits="userSpaceOnUse">
<stop stop-color="#B5DBFF"/>
<stop offset="1" stop-color="#48B2E3"/>
</linearGradient>
<linearGradient id="paint5_linear" x1="31.7456" y1="5.30328" x2="27.773" y2="1.33071" gradientUnits="userSpaceOnUse">
<stop stop-color="#0B799D"/>
<stop offset="1" stop-color="#07485E"/>
</linearGradient>
<linearGradient id="paint6_linear" x1="28.9045" y1="2.46233" x2="31.3977" y2="4.95551" gradientUnits="userSpaceOnUse">
<stop stop-color="#0B799D"/>
<stop offset="1" stop-color="#07485E"/>
</linearGradient>
<linearGradient id="paint7_linear" x1="28.8217" y1="54.4259" x2="33.1518" y2="66.3337" gradientUnits="userSpaceOnUse">
<stop stop-color="#0B799D"/>
<stop offset="1" stop-color="#07485E"/>
</linearGradient>
<linearGradient id="paint8_linear" x1="5.96781" y1="40.2326" x2="8.84757" y2="43.1123" gradientUnits="userSpaceOnUse">
<stop stop-color="#B9DD39"/>
<stop offset="1" stop-color="#0B799D"/>
</linearGradient>
<linearGradient id="paint9_linear" x1="40.8133" y1="36.714" x2="28.7473" y2="9.18493" gradientUnits="userSpaceOnUse">
<stop stop-color="#07485E" stop-opacity="0"/>
<stop offset="0.5274" stop-color="#053342" stop-opacity="0.527"/>
<stop offset="1" stop-color="#03232E"/>
</linearGradient>
<linearGradient id="paint10_linear" x1="24.453" y1="16.493" x2="38.2389" y2="30.2788" gradientUnits="userSpaceOnUse">
<stop stop-color="#EDF5FF"/>
<stop offset="1" stop-color="#D5E8FE"/>
</linearGradient>
<linearGradient id="paint11_linear" x1="40.101" y1="32.1409" x2="19.5893" y2="11.6292" gradientUnits="userSpaceOnUse">
<stop stop-color="#EDF5FF"/>
<stop offset="1" stop-color="#D5E8FE"/>
</linearGradient>
<linearGradient id="paint12_linear" x1="25.7177" y1="17.7576" x2="33.2787" y2="25.3186" gradientUnits="userSpaceOnUse">
<stop stop-color="#FF637B"/>
<stop offset="1" stop-color="#E63950"/>
</linearGradient>
<clipPath id="clip0">
<rect width="60" height="60" fill="white"/>
</clipPath>
</defs>
</svg>
