<svg width="60" height="60" viewBox="0 0 60 60" fill="none" xmlns="http://www.w3.org/2000/svg">
<g clip-path="url(#clip0)">
<path d="M57.0975 55.5925H2.90247C1.29953 55.5925 0 54.293 0 52.6899V21.0025C0 19.3994 1.29953 18.1 2.90247 18.1H57.0974C58.7005 18.1 59.9999 19.3995 59.9999 21.0025V52.6899C60 54.293 58.7005 55.5925 57.0975 55.5925Z" fill="url(#paint0_linear)"/>
<path d="M57.0975 55.5925H2.90248C1.91342 55.5925 1.04048 55.0974 0.516479 54.342L26.06 30.4062C28.2762 28.3295 31.7239 28.3295 33.9401 30.4062L59.4835 54.342C58.9594 55.0974 58.0865 55.5925 57.0975 55.5925Z" fill="url(#paint1_linear)"/>
<path d="M57.0975 18.1H2.90248C1.91342 18.1 1.04048 18.5951 0.516479 19.3505L26.06 45.4051C28.2762 47.4818 31.7239 47.4818 33.9401 45.4051L59.4835 19.3505C58.9594 18.5951 58.0865 18.1 57.0975 18.1Z" fill="url(#paint2_linear)"/>
<path d="M30 32.4339C37.7393 32.4339 44.0132 26.16 44.0132 18.4207C44.0132 10.6814 37.7393 4.40753 30 4.40753C22.2607 4.40753 15.9868 10.6814 15.9868 18.4207C15.9868 26.16 22.2607 32.4339 30 32.4339Z" fill="url(#paint3_linear)"/>
<path d="M43.9427 19.832L31.8815 7.77083C31.4807 7.23589 30.7729 7.18095 29.9844 7.18095C28.7077 7.18095 27.9467 7.63059 27.9467 8.84506C27.9467 12.5507 28.3827 17.8759 28.3827 21.5815C28.3827 22.0659 28.3591 22.4091 28.6959 22.6308L36.7618 30.6967C40.6951 28.5254 43.474 24.5193 43.9427 19.832Z" fill="url(#paint4_linear)"/>
<path d="M36.6292 30.7691L31.7581 25.8979C31.3205 25.4113 30.6955 25.218 30.0155 25.218C28.6452 25.218 27.7354 26.1902 27.7354 27.4981C27.7354 28.1954 27.9256 28.8446 28.4269 29.2918L31.4899 32.3548C33.3332 32.1601 35.0698 31.6081 36.6292 30.7691Z" fill="url(#paint5_linear)"/>
<path d="M32.3823 27.4982C32.3823 28.7751 31.2924 29.8961 30.0156 29.8961C28.6453 29.8961 27.6177 28.7751 27.6177 27.4982C27.6177 26.1904 28.6453 25.1004 30.0156 25.1004C31.2924 25.1004 32.3823 26.1904 32.3823 27.4982ZM31.7906 21.5815C31.7906 22.547 30.7318 22.9518 29.9844 22.9518C28.9879 22.9518 28.1471 22.547 28.1471 21.5815C28.1471 17.8759 27.7111 12.5507 27.7111 8.84507C27.7111 7.6306 28.7076 6.94542 29.9844 6.94542C31.1989 6.94542 32.2265 7.63048 32.2265 8.84507C32.2266 12.5507 31.7906 17.8758 31.7906 21.5815Z" fill="url(#paint6_linear)"/>
</g>
<defs>
<linearGradient id="paint0_linear" x1="29.5814" y1="15.3721" x2="43.8166" y2="69.0241" gradientUnits="userSpaceOnUse">
<stop stop-color="#B5DBFF"/>
<stop offset="1" stop-color="#48B2E3"/>
</linearGradient>
<linearGradient id="paint1_linear" x1="29.5886" y1="26.9029" x2="37.1953" y2="66.4027" gradientUnits="userSpaceOnUse">
<stop stop-color="#B5DBFF"/>
<stop offset="1" stop-color="#48B2E3"/>
</linearGradient>
<linearGradient id="paint2_linear" x1="29.5886" y1="16" x2="38.3964" y2="58.3796" gradientUnits="userSpaceOnUse">
<stop stop-color="#B5DBFF"/>
<stop offset="1" stop-color="#48B2E3"/>
</linearGradient>
<linearGradient id="paint3_linear" x1="23.4822" y1="11.9029" x2="36.9891" y2="25.4098" gradientUnits="userSpaceOnUse">
<stop stop-color="#FF637B"/>
<stop offset="1" stop-color="#E63950"/>
</linearGradient>
<linearGradient id="paint4_linear" x1="38.7575" y1="22.1617" x2="24.2903" y2="12.4779" gradientUnits="userSpaceOnUse">
<stop stop-color="#E63950" stop-opacity="0"/>
<stop offset="0.0467" stop-color="#E4354B" stop-opacity="0.047"/>
<stop offset="0.4669" stop-color="#D31822" stop-opacity="0.467"/>
<stop offset="0.7991" stop-color="#C90709" stop-opacity="0.799"/>
<stop offset="1" stop-color="#C50000"/>
</linearGradient>
<linearGradient id="paint5_linear" x1="35.4178" y1="31.7147" x2="28.0722" y2="26.6427" gradientUnits="userSpaceOnUse">
<stop stop-color="#E63950" stop-opacity="0"/>
<stop offset="0.0467" stop-color="#E4354B" stop-opacity="0.047"/>
<stop offset="0.4669" stop-color="#D31822" stop-opacity="0.467"/>
<stop offset="0.7991" stop-color="#C90709" stop-opacity="0.799"/>
<stop offset="1" stop-color="#C50000"/>
</linearGradient>
<linearGradient id="paint6_linear" x1="27.6178" y1="18.4207" x2="32.3823" y2="18.4207" gradientUnits="userSpaceOnUse">
<stop stop-color="#EDF5FF"/>
<stop offset="1" stop-color="#D5E8FE"/>
</linearGradient>
<clipPath id="clip0">
<rect width="60" height="60" fill="white"/>
</clipPath>
</defs>
</svg>
