<svg width="60" height="60" viewBox="0 0 60 60" fill="none" xmlns="http://www.w3.org/2000/svg">
<path d="M56.1909 51.5818H3.8092C1.70542 51.5818 0 49.8764 0 47.7726V12.8092C0 10.7054 1.70542 9 3.8092 9H56.1908C58.2946 9 60 10.7054 60 12.8092V47.7727C60 49.8763 58.2946 51.5818 56.1909 51.5818Z" fill="url(#paint0_linear)"/>
<path d="M54.1246 48.773H5.87563C4.20323 48.773 2.84741 47.4171 2.84741 45.7447V14.8369C2.84741 13.1645 4.20323 11.8087 5.87563 11.8087H54.1246C55.797 11.8087 57.1528 13.1645 57.1528 14.8369V45.7447C57.1528 47.4171 55.797 48.773 54.1246 48.773Z" fill="url(#paint1_linear)"/>
<path d="M52.637 46.9475H7.36286C5.82669 46.9475 4.58142 45.7023 4.58142 44.1661V16.4156C4.58142 14.8794 5.82669 13.6342 7.36286 13.6342H52.6372C54.1733 13.6342 55.4186 14.8794 55.4186 16.4156V44.1661C55.4186 45.7023 54.1732 46.9475 52.637 46.9475Z" fill="url(#paint2_linear)"/>
<path d="M21.6486 39.2596H9.36659C8.51336 39.2596 7.82178 38.5679 7.82178 37.7148V22.8669C7.82178 22.0137 8.51349 21.3221 9.36659 21.3221H21.6486C22.5018 21.3221 23.1934 22.0138 23.1934 22.8669V37.7146C23.1934 38.5679 22.5018 39.2596 21.6486 39.2596Z" fill="url(#paint3_linear)"/>
<path d="M35.8142 25.7927H27.391C26.7737 25.7927 26.2733 25.2923 26.2733 24.675V22.4398C26.2733 21.8225 26.7737 21.3221 27.391 21.3221H35.8142C36.4315 21.3221 36.9319 21.8225 36.9319 22.4398V24.675C36.9319 25.2923 36.4315 25.7927 35.8142 25.7927Z" fill="#B5DBFF"/>
<path d="M51.0607 25.7927H40.5664C39.9491 25.7927 39.4487 25.2923 39.4487 24.675V22.4398C39.4487 21.8225 39.9491 21.3221 40.5664 21.3221H51.0607C51.678 21.3221 52.1784 21.8225 52.1784 22.4398V24.675C52.1783 25.2923 51.678 25.7927 51.0607 25.7927Z" fill="#B5DBFF"/>
<path d="M46.8491 32.5262H51.0608C51.6781 32.5262 52.1785 32.0257 52.1785 31.4085V29.1732C52.1785 28.5559 51.6781 28.0555 51.0608 28.0555H46.8491C46.2318 28.0555 45.7314 28.5559 45.7314 29.1732V31.4085C45.7314 32.0257 46.2318 32.5262 46.8491 32.5262Z" fill="#B5DBFF"/>
<path d="M27.39 32.5262H42.0959C42.7132 32.5262 43.2136 32.0257 43.2136 31.4085V29.1732C43.2136 28.5559 42.7132 28.0555 42.0959 28.0555H27.39C26.7727 28.0555 26.2723 28.5559 26.2723 29.1732V31.4085C26.2725 32.0257 26.7729 32.5262 27.39 32.5262Z" fill="#B5DBFF"/>
<path d="M35.8134 39.2596H27.3901C26.7729 39.2596 26.2725 38.7592 26.2725 38.1419V35.9067C26.2725 35.2894 26.7729 34.789 27.3901 34.789H35.8134C36.4307 34.789 36.9311 35.2894 36.9311 35.9067V38.1419C36.9311 38.7592 36.4307 39.2596 35.8134 39.2596Z" fill="#B5DBFF"/>
<path d="M51.0608 39.2596H40.5665C39.9493 39.2596 39.4489 38.7592 39.4489 38.1419V35.9067C39.4489 35.2894 39.9493 34.789 40.5665 34.789H51.0608C51.6781 34.789 52.1785 35.2894 52.1785 35.9067V38.1419C52.1784 38.7592 51.6781 39.2596 51.0608 39.2596Z" fill="#B5DBFF"/>
<path d="M30 12.9725C30.6428 12.9725 31.1638 12.4515 31.1638 11.8088C31.1638 11.1661 30.6428 10.6451 30 10.6451C29.3573 10.6451 28.8363 11.1661 28.8363 11.8088C28.8363 12.4515 29.3573 12.9725 30 12.9725Z" fill="url(#paint4_linear)"/>
<path d="M29.9999 12.5391C30.4033 12.5391 30.7302 12.2121 30.7302 11.8088C30.7302 11.4055 30.4033 11.0785 29.9999 11.0785C29.5966 11.0785 29.2697 11.4055 29.2697 11.8088C29.2697 12.2121 29.5966 12.5391 29.9999 12.5391Z" fill="url(#paint5_linear)"/>
<path d="M7.04574 50.4589H6.18142C5.68566 50.4589 5.28381 50.057 5.28381 49.5613V48.697C5.28381 48.2012 5.68566 47.7993 6.18142 47.7993H7.04574C7.5415 47.7993 7.94334 48.2012 7.94334 48.697V49.5613C7.94321 50.057 7.54137 50.4589 7.04574 50.4589Z" fill="url(#paint6_linear)"/>
<path d="M15.4913 32.8738C18.1715 32.8738 20.3442 30.701 20.3442 28.0208C20.3442 25.3406 18.1715 23.1678 15.4913 23.1678C12.8111 23.1678 10.6383 25.3406 10.6383 28.0208C10.6383 30.701 12.8111 32.8738 15.4913 32.8738Z" fill="#07485E"/>
<path d="M21.6013 36.1919C21.938 36.5709 21.6979 37.1713 21.1927 37.2146C19.7459 37.3386 17.83 37.4138 15.7282 37.4138C13.4016 37.4138 11.3031 37.3217 9.81623 37.1736C9.31724 37.1239 9.07781 36.5278 9.41348 36.1551C9.41606 36.1523 9.41851 36.1496 9.42109 36.1467C10.9152 34.4867 13.081 33.4432 15.4906 33.4432C17.8741 33.4432 20.0177 34.4632 21.5105 36.0914C21.5411 36.1247 21.5714 36.1581 21.6013 36.1919Z" fill="#07485E"/>
<defs>
<linearGradient id="paint0_linear" x1="17.691" y1="17.9817" x2="57.9373" y2="58.228" gradientUnits="userSpaceOnUse">
<stop stop-color="#0B799D"/>
<stop offset="1" stop-color="#07485E"/>
</linearGradient>
<linearGradient id="paint1_linear" x1="50.4902" y1="50.7809" x2="2.919" y2="3.20984" gradientUnits="userSpaceOnUse">
<stop stop-color="#0B799D"/>
<stop offset="1" stop-color="#07485E"/>
</linearGradient>
<linearGradient id="paint2_linear" x1="16.89" y1="17.181" x2="43.1305" y2="43.4215" gradientUnits="userSpaceOnUse">
<stop stop-color="#EDF5FF"/>
<stop offset="1" stop-color="#D5E8FE"/>
</linearGradient>
<linearGradient id="paint3_linear" x1="6.24407" y1="21.0273" x2="26.9526" y2="41.7358" gradientUnits="userSpaceOnUse">
<stop stop-color="#B9DD39"/>
<stop offset="1" stop-color="#0B799D"/>
</linearGradient>
<linearGradient id="paint4_linear" x1="31.7456" y1="13.5543" x2="27.7729" y2="9.58166" gradientUnits="userSpaceOnUse">
<stop stop-color="#0B799D"/>
<stop offset="1" stop-color="#07485E"/>
</linearGradient>
<linearGradient id="paint5_linear" x1="28.9044" y1="10.7133" x2="31.3976" y2="13.2064" gradientUnits="userSpaceOnUse">
<stop stop-color="#0B799D"/>
<stop offset="1" stop-color="#07485E"/>
</linearGradient>
<linearGradient id="paint6_linear" x1="5.96779" y1="48.4835" x2="8.84767" y2="51.3633" gradientUnits="userSpaceOnUse">
<stop stop-color="#B9DD39"/>
<stop offset="1" stop-color="#0B799D"/>
</linearGradient>
</defs>
</svg>
