<svg width="60" height="60" viewBox="0 0 60 60" fill="none" xmlns="http://www.w3.org/2000/svg">
<g clip-path="url(#clip0)">
<path d="M57.7162 45.9187H2.28376C1.02247 45.9187 0 44.8962 0 43.6349V4.90765C0 3.64636 1.02247 2.62389 2.28376 2.62389H57.7162C58.9775 2.62389 60 3.64636 60 4.90765V43.6349C60 44.8962 58.9775 45.9187 57.7162 45.9187Z" fill="url(#paint0_linear)"/>
<path d="M60 11.868H0V4.90765C0 3.64636 1.02247 2.62389 2.28376 2.62389H57.7162C58.9775 2.62389 60 3.64636 60 4.90765V11.868Z" fill="url(#paint1_linear)"/>
<path d="M4.80621 9.09741H3.60279C2.91256 9.09741 2.35303 8.53788 2.35303 7.84765V6.64424C2.35303 5.954 2.91256 5.39447 3.60279 5.39447H4.80621C5.49644 5.39447 6.05597 5.954 6.05597 6.64424V7.84765C6.05597 8.53788 5.49644 9.09741 4.80621 9.09741Z" fill="url(#paint2_linear)"/>
<path d="M9.52751 9.09741H8.32398C7.63375 9.09741 7.07422 8.53788 7.07422 7.84765V6.64424C7.07422 5.954 7.63375 5.39447 8.32398 5.39447H9.5274C10.2176 5.39447 10.7772 5.954 10.7772 6.64424V7.84765C10.7773 8.53788 10.2177 9.09741 9.52751 9.09741Z" fill="url(#paint3_linear)"/>
<path d="M14.2488 9.09741H13.0454C12.3552 9.09741 11.7957 8.53788 11.7957 7.84765V6.64424C11.7957 5.954 12.3552 5.39447 13.0454 5.39447H14.2488C14.9391 5.39447 15.4986 5.954 15.4986 6.64424V7.84765C15.4986 8.53788 14.9391 9.09741 14.2488 9.09741Z" fill="url(#paint4_linear)"/>
<path d="M0 35.3881V43.6351C0 44.8964 1.02247 45.9188 2.28376 45.9188H57.7162C58.9775 45.9188 60 44.8964 60 43.6351V35.3881H0Z" fill="url(#paint5_linear)"/>
<path d="M19.5428 36.1981H7.26077C6.40759 36.1981 5.71594 35.5065 5.71594 34.6533V19.8054C5.71594 18.9522 6.40759 18.2606 7.26077 18.2606H19.5428C20.3959 18.2606 21.0876 18.9522 21.0876 19.8054V34.6532C21.0877 35.5064 20.3961 36.1981 19.5428 36.1981Z" fill="#B5DBFF"/>
<path d="M33.7074 22.7312H25.2842C24.6669 22.7312 24.1665 22.2308 24.1665 21.6135V19.3782C24.1665 18.7609 24.6669 18.2606 25.2842 18.2606H33.7074C34.3247 18.2606 34.8251 18.7609 34.8251 19.3782V21.6135C34.8251 22.2307 34.3247 22.7312 33.7074 22.7312Z" fill="#B5DBFF"/>
<path d="M53.1666 22.7312H38.4607C37.8434 22.7312 37.343 22.2308 37.343 21.6135V19.3782C37.343 18.7609 37.8434 18.2606 38.4607 18.2606H53.1666C53.7839 18.2606 54.2842 18.7609 54.2842 19.3782V21.6135C54.2842 22.2307 53.7839 22.7312 53.1666 22.7312Z" fill="#B5DBFF"/>
<path d="M44.7431 29.4646H53.1664C53.7837 29.4646 54.2841 28.9642 54.2841 28.3469V26.1117C54.2841 25.4944 53.7837 24.994 53.1664 24.994H44.7431C44.1258 24.994 43.6255 25.4944 43.6255 26.1117V28.3469C43.6255 28.9642 44.1258 29.4646 44.7431 29.4646Z" fill="#B5DBFF"/>
<path d="M25.2842 29.4646H39.99C40.6073 29.4646 41.1077 28.9642 41.1077 28.3469V26.1117C41.1077 25.4944 40.6073 24.994 39.99 24.994H25.2842C24.6669 24.994 24.1665 25.4944 24.1665 26.1117V28.3469C24.1665 28.9642 24.6669 29.4646 25.2842 29.4646Z" fill="#B5DBFF"/>
<path d="M33.7074 36.1981H25.2842C24.6669 36.1981 24.1665 35.6978 24.1665 35.0805V32.8452C24.1665 32.2279 24.6669 31.7275 25.2842 31.7275H33.7074C34.3247 31.7275 34.8251 32.2279 34.8251 32.8452V35.0805C34.8251 35.6977 34.3247 36.1981 33.7074 36.1981Z" fill="#B5DBFF"/>
<path d="M53.1666 36.1981H38.4607C37.8434 36.1981 37.343 35.6978 37.343 35.0805V32.8452C37.343 32.2279 37.8434 31.7275 38.4607 31.7275H53.1666C53.7839 31.7275 54.2842 32.2279 54.2842 32.8452V35.0805C54.2842 35.6977 53.7839 36.1981 53.1666 36.1981Z" fill="#B5DBFF"/>
<path d="M30 57.3761C37.7393 57.3761 44.0132 51.1022 44.0132 43.3629C44.0132 35.6237 37.7393 29.3498 30 29.3498C22.2607 29.3498 15.9868 35.6237 15.9868 43.3629C15.9868 51.1022 22.2607 57.3761 30 57.3761Z" fill="url(#paint6_linear)"/>
<path d="M41.316 35.0946L30.5942 45.8164C30.4653 45.9453 30.1007 46.1899 30 46.1899C29.8993 46.1899 29.7522 46.1628 29.6232 46.0338L24.551 40.9618C23.4905 39.9013 21.8796 39.9013 20.819 40.9618C19.7585 42.0224 19.6497 43.5245 20.7103 44.5851L33.1443 57.0188C39.3696 55.5917 44.0133 50.0182 44.0133 43.36C44.0132 40.2687 43.0114 37.4119 41.316 35.0946Z" fill="url(#paint7_linear)"/>
<path d="M30 51.4068C28.4068 51.4068 26.909 50.7864 25.7825 49.6598L20.7105 44.5878C19.6499 43.5272 19.6499 41.8077 20.7105 40.7472C21.771 39.6867 23.4905 39.6867 24.5511 40.7472L29.6232 45.8192C29.7522 45.9483 29.8994 45.9753 30 45.9753C30.1006 45.9753 30.2478 45.9483 30.3768 45.8192L43.8262 32.3698C44.8868 31.3093 46.6064 31.3093 47.6668 32.3698C48.7274 33.4304 48.7274 35.1499 47.6668 36.2104L34.2174 49.6598C33.0911 50.7864 31.5932 51.4068 30 51.4068Z" fill="url(#paint8_linear)"/>
</g>
<defs>
<linearGradient id="paint0_linear" x1="13.8714" y1="8.14271" x2="47.6133" y2="41.8846" gradientUnits="userSpaceOnUse">
<stop stop-color="#EDF5FF"/>
<stop offset="1" stop-color="#D5E8FE"/>
</linearGradient>
<linearGradient id="paint1_linear" x1="29.5814" y1="1.9513" x2="30.5038" y2="16.0506" gradientUnits="userSpaceOnUse">
<stop stop-color="#B5DBFF"/>
<stop offset="1" stop-color="#48B2E3"/>
</linearGradient>
<linearGradient id="paint2_linear" x1="3.79303" y1="6.93247" x2="5.48491" y2="8.22153" gradientUnits="userSpaceOnUse">
<stop stop-color="#FF637B"/>
<stop offset="1" stop-color="#E63950"/>
</linearGradient>
<linearGradient id="paint3_linear" x1="8.51434" y1="6.93247" x2="10.2062" y2="8.22153" gradientUnits="userSpaceOnUse">
<stop stop-color="#FFDA2D"/>
<stop offset="1" stop-color="#FDBF00"/>
</linearGradient>
<linearGradient id="paint4_linear" x1="12.748" y1="6.34682" x2="16.7578" y2="10.3566" gradientUnits="userSpaceOnUse">
<stop stop-color="#B9DD39"/>
<stop offset="1" stop-color="#0B799D"/>
</linearGradient>
<linearGradient id="paint5_linear" x1="30" y1="40.4098" x2="30" y2="52.0562" gradientUnits="userSpaceOnUse">
<stop stop-color="#B5DBFF" stop-opacity="0"/>
<stop offset="0.2428" stop-color="#93CEF6" stop-opacity="0.243"/>
<stop offset="0.5763" stop-color="#6ABFEC" stop-opacity="0.576"/>
<stop offset="0.8403" stop-color="#51B5E5" stop-opacity="0.84"/>
<stop offset="1" stop-color="#48B2E3"/>
</linearGradient>
<linearGradient id="paint6_linear" x1="23.4822" y1="36.8452" x2="36.989" y2="50.3519" gradientUnits="userSpaceOnUse">
<stop stop-color="#B9DD39"/>
<stop offset="1" stop-color="#90CC1C"/>
</linearGradient>
<linearGradient id="paint7_linear" x1="42.7372" y1="51.5638" x2="37.7146" y2="46.5412" gradientUnits="userSpaceOnUse">
<stop stop-color="#66BB00" stop-opacity="0"/>
<stop offset="1" stop-color="#66BB00"/>
</linearGradient>
<linearGradient id="paint8_linear" x1="28.7667" y1="33.0568" x2="42.7561" y2="47.0462" gradientUnits="userSpaceOnUse">
<stop stop-color="#0B799D"/>
<stop offset="1" stop-color="#07485E"/>
</linearGradient>
<clipPath id="clip0">
<rect width="60" height="60" fill="white"/>
</clipPath>
</defs>
</svg>
